<svg width="120" height="38" viewBox="0 0 120 38" fill="none" xmlns="http://www.w3.org/2000/svg">
<path d="M112.126 29.2399C113.721 29.2399 115.014 27.9564 115.014 26.3731C115.014 24.7899 113.721 23.5063 112.126 23.5063C110.532 23.5063 109.239 24.7899 109.239 26.3731C109.239 27.9564 110.532 29.2399 112.126 29.2399Z" fill="black"/>
<path d="M23.1518 22.9847C23.129 22.091 22.9334 21.2284 22.4318 20.4634C21.695 19.3362 20.6114 18.7166 19.3118 18.4259C19.1918 18.3973 19.0718 18.3806 19.0034 18.2591C20.3702 17.9016 21.389 17.1331 21.9218 15.8069C22.2818 14.9038 22.2998 13.9589 22.205 13.0081C22.0442 11.4055 21.2798 10.2378 19.7474 9.60389C18.6998 9.17136 17.5958 9.04625 16.4858 9.03315C13.4858 8.99859 10.4858 9.01408 7.47983 9.00098C7.20263 9.00098 7.15703 9.11179 7.15823 9.35843C7.16303 15.7347 7.16303 22.1109 7.15823 28.4871C7.15823 28.791 7.24823 28.8684 7.54943 28.8672C10.4294 28.8577 13.301 28.8672 16.1774 28.8577C17.2923 28.8639 18.4011 28.6954 19.463 28.3584C20.753 27.9402 21.8378 27.2313 22.5098 26.0064C23.027 25.0579 23.1794 24.0344 23.1518 22.9847ZM11.7602 13.5002C11.7602 13.2916 11.8418 13.2321 12.0434 13.2356C12.7142 13.2452 13.3838 13.2356 14.0558 13.2356C14.7062 13.2356 15.3542 13.2356 16.0046 13.2785C17.0294 13.356 17.6222 13.9613 17.6774 14.9788C17.7194 15.7593 17.5154 16.4087 16.7798 16.7852C16.3937 16.9764 15.9681 17.076 15.5366 17.0759C14.363 17.0986 13.1882 17.089 12.0134 17.0974C11.8202 17.0974 11.7602 17.0187 11.7602 16.8352C11.7602 15.7255 11.7602 14.6138 11.7602 13.5002ZM16.6298 24.5527C15.845 24.6302 15.0578 24.5742 14.3498 24.5932C13.5242 24.5932 12.7802 24.5873 12.035 24.5932C11.8346 24.5932 11.7554 24.5408 11.7566 24.3311C11.7566 23.0931 11.7566 21.8551 11.7566 20.6159C11.7566 20.4682 11.7638 20.3407 11.9654 20.3455C13.5362 20.3812 15.1106 20.2632 16.6802 20.4134C17.7806 20.5194 18.5042 21.3666 18.4802 22.4497C18.4598 23.6245 17.7398 24.4407 16.6238 24.5527H16.6298Z" fill="black"/>
<path d="M68.0127 21.6859C70.5159 21.705 72.2259 21.4202 72.4431 21.3809L68.0127 21.6859Z" fill="black"/>
<path d="M72.6056 9.26173L72.47 21.3735H72.4424L68.012 21.6857H67.97V21.6392C67.97 20.6408 67.97 19.6411 67.97 18.6414C67.97 18.465 67.9472 18.3721 67.7384 18.3304C66.974 18.1791 66.2096 18.0516 65.4296 18.1123C64.3952 18.1934 63.5228 18.6044 62.9552 19.5017C62.3696 20.4322 62.2808 21.4593 62.4812 22.5114C62.7092 23.7173 63.3776 24.5906 64.58 24.9731C65.0673 25.1245 65.5771 25.1918 66.0872 25.1721C66.0872 25.1721 70.0352 25.0387 72.4304 24.6097L72.3908 28.2188C70.5908 28.9016 68.7392 29.172 66.7616 29.2519C65.3756 29.3031 64.0016 29.24 62.696 28.7753C60.3548 27.9412 58.7612 26.3565 58.0616 23.9651C57.493 22.0902 57.6112 20.0759 58.3952 18.2792C59.3324 16.0963 61.0436 14.7952 63.3512 14.2435C64.7729 13.8981 66.2564 13.8895 67.682 14.2185C67.7624 14.2375 67.8452 14.2447 67.9676 14.2625C67.9676 12.6147 67.9736 10.9906 67.9676 9.36539C67.9676 9.08776 68.0264 9.00793 68.3276 9.00793C69.6596 9.02461 70.9928 9.01865 72.3272 9.00793C72.5168 9.00317 72.6056 9.02104 72.6056 9.26173Z" fill="black"/>
<path d="M51.8008 18.7736C52.6593 18.9315 53.4655 19.297 54.148 19.8377C55.3708 20.8207 56.0212 22.0777 55.948 23.6684C55.8448 26.0145 54.5476 27.4908 52.4548 28.3702C50.8948 29.0231 49.258 29.1816 47.5852 29.1339C45.9907 29.0961 44.4119 28.8123 42.9052 28.2927C42.0421 27.9975 41.2221 27.5901 40.4668 27.0809C40.3372 26.9928 40.318 26.9308 40.3948 26.7878C41.0004 25.6583 41.5984 24.5251 42.1888 23.3884C42.2872 23.1989 42.3556 23.2228 42.5104 23.3229C44.74 24.7706 47.1568 25.2102 49.75 24.5954C50.962 24.3083 51.5968 23.3348 51.31 22.2529C51.1324 21.5785 50.6212 21.2127 50.0032 20.9625C49.1812 20.63 48.3148 20.5645 47.4412 20.5538C47.0008 20.5478 46.5592 20.5478 46.1212 20.5538C45.9748 20.5538 45.922 20.5168 45.9232 20.3631C45.9292 19.311 45.9316 18.2589 45.9232 17.2068C45.9232 16.9935 46.0372 17.0078 46.1812 17.0078C47.0716 17.0078 47.9656 17.0412 48.8464 16.8601C49.3192 16.7635 49.7812 16.6456 50.1988 16.3834C50.782 16.0105 51.0616 15.5029 51.0196 14.8106C50.9776 14.1184 50.5852 13.6561 49.9768 13.3713C49.2568 13.0365 48.4864 12.9459 47.7064 12.9554C46.0852 12.9757 44.5468 13.3212 43.1464 14.1589C42.9124 14.2971 42.6904 14.4544 42.448 14.6128C41.7976 13.3903 41.1496 12.1667 40.4944 10.9465C40.4176 10.8036 40.5136 10.7738 40.5952 10.7154C41.3452 10.1756 42.2044 9.85629 43.0708 9.58105C45.0748 8.93644 47.134 8.57898 49.258 8.72792C50.7376 8.83039 52.1728 9.10564 53.44 9.91944C54.808 10.8059 55.5052 12.0713 55.6 13.6966C55.684 15.1264 55.2064 16.337 54.2188 17.351C53.6256 17.9623 52.8806 18.4074 52.0588 18.6414C51.9724 18.6724 51.8692 18.67 51.8008 18.7736Z" fill="black"/>
<path d="M89.6644 19.5242C89.0644 17.1412 87.7312 15.3634 85.3444 14.5055C83.9044 13.9896 82.414 13.9098 80.9116 14.1671C78.4432 14.5889 76.5916 15.8555 75.5284 18.148C74.9824 19.3252 74.8084 20.5763 74.8264 21.8632C74.866 25.2197 76.846 27.8744 80.05 28.8324C81.6568 29.309 83.29 29.3293 84.9388 29.0838C86.4121 28.8615 87.8282 28.3582 89.1088 27.6016C89.1916 27.5539 89.3884 27.5491 89.2744 27.3501C88.624 26.2126 87.9732 25.0708 87.322 23.9245C86.8137 24.2673 86.2653 24.5474 85.6888 24.7586C84.5068 25.1804 83.2948 25.4342 82.0576 25.0851C80.7736 24.7276 80.0176 23.8161 79.624 22.5376H80.0032C83.2248 22.5376 86.4468 22.5376 89.6692 22.5376C89.9032 22.5376 89.9908 22.4983 89.986 22.2385C89.9837 21.3245 89.8758 20.4138 89.6644 19.5242ZM85.0804 20.0437C84.1996 20.0437 83.3176 20.0437 82.4404 20.0437C81.58 20.0437 80.7196 20.0437 79.8592 20.0437C79.726 20.0437 79.6192 20.0676 79.6756 19.8543C80.2132 17.8728 82.5028 17.0161 84.16 18.1862C84.742 18.5972 85.078 19.1703 85.2652 19.8459C85.3204 20.0354 85.2352 20.0449 85.0804 20.0437Z" fill="black"/>
<path d="M38.3899 19.617C38.3879 19.263 38.3619 18.9095 38.3119 18.559C38.0851 16.9516 37.3699 15.66 35.8591 14.8962C35.2579 14.6008 34.6156 14.396 33.9535 14.2886C32.6899 14.0787 31.4035 14.0386 30.1291 14.1694C29.0429 14.2545 27.9668 14.4384 26.9143 14.7187C26.7943 14.7532 26.6923 14.7878 26.6527 14.9403C26.3263 16.1998 25.9891 17.4568 25.6387 18.777C26.6281 18.4497 27.6462 18.2147 28.6795 18.0752C29.8051 17.9203 30.9295 17.8214 32.0587 18.043C33.2671 18.2813 33.8395 18.9641 33.8143 20.1437C33.8143 20.2926 33.7963 20.382 33.6127 20.3451C33.0962 20.2648 32.5752 20.2159 32.0527 20.1985C30.7171 20.1163 29.3923 20.1604 28.0927 20.4809C25.7167 21.0635 24.5263 22.5255 24.5767 24.8299C24.6127 26.4981 25.3651 27.7361 26.9035 28.4617C27.1873 28.595 27.481 28.7065 27.7819 28.7953C29.3575 29.2636 30.9751 29.3196 32.6059 29.2612C34.4591 29.1913 36.3043 28.983 38.1259 28.638C38.3791 28.5904 38.4127 28.4903 38.4115 28.2806C38.3911 25.3888 38.3995 22.5029 38.3899 19.617ZM33.8059 24.3581C33.8059 24.7537 33.8059 25.1493 33.8059 25.5496C33.8059 25.6688 33.7915 25.7355 33.6451 25.751C32.6323 25.8606 31.6207 25.9559 30.6139 25.7283C29.7079 25.521 29.2699 25.0134 29.2999 24.2366C29.3215 23.6587 29.6347 23.2833 30.1531 23.0796C30.8995 22.7829 31.6855 22.7758 32.4727 22.8246C32.8327 22.8484 33.1795 22.8985 33.5347 22.9295C33.7315 22.9461 33.8215 23.0212 33.8107 23.2393C33.7915 23.6086 33.8059 23.984 33.8059 24.3581Z" fill="black"/>
<path d="M72.4431 21.3745C72.2259 21.4138 70.5159 21.6986 68.0127 21.6795L72.4431 21.3745Z" fill="black"/>
<path d="M96.8402 28.8501C95.3714 28.8501 93.9026 28.8501 92.4326 28.8596C92.2886 28.8596 92.213 28.8287 92.2382 28.6726C92.2406 28.6412 92.2406 28.6098 92.2382 28.5784C92.2382 24.0793 92.2382 19.5797 92.2382 15.0797C92.2382 14.8569 92.2982 14.7759 92.5166 14.7437C94.7966 14.4053 97.0766 14.0288 99.3866 14.0455C100.499 14.0352 101.605 14.2212 102.652 14.5947C104.559 15.3013 105.604 16.674 105.853 18.6626C105.889 18.9412 105.907 19.2218 105.907 19.5026C105.907 22.5136 105.907 25.5234 105.918 28.5332C105.918 28.8275 105.825 28.8656 105.567 28.8632C104.255 28.8497 102.944 28.8497 101.632 28.8632C101.365 28.8632 101.281 28.8167 101.284 28.5296C101.297 25.832 101.291 23.1344 101.291 20.4368C101.291 20.3534 101.291 20.27 101.291 20.1866C101.257 18.9247 100.801 18.3671 99.5462 18.1967C98.6695 18.0971 97.7819 18.1516 96.9242 18.3576C96.8828 18.4646 96.872 18.5809 96.893 18.6936C96.893 21.9695 96.893 25.2454 96.893 28.5212C96.8798 28.6309 96.9242 28.75 96.8402 28.8501Z" fill="black"/>
</svg>
