<svg width="128" height="37" viewBox="0 0 128 37" fill="none" xmlns="http://www.w3.org/2000/svg">
<path d="M16.576 4.71933C16.9921 2.56663 15.5777 0.485468 13.4167 0.0709299C11.2558 -0.343608 9.16666 1.06545 8.75053 3.21815C8.33441 5.37086 9.74886 7.45202 11.9098 7.86655C14.0708 8.28109 16.1599 6.87203 16.576 4.71933Z" fill="#00ADB5"/>
<path d="M44.272 33.6667C44.6245 31.5028 43.1494 29.4639 40.9773 29.1128C38.8051 28.7616 36.7584 30.2311 36.4059 32.3949C36.0534 34.5588 37.5285 36.5977 39.7006 36.9489C41.8728 37.3 43.9195 35.8306 44.272 33.6667Z" fill="#00ADB5"/>
<path d="M37.1983 17.005H24.8991V36.1476H12.3898C5.5584 36.1476 0 30.6104 0 23.805V10.4229H6.68736V23.805C6.68736 26.9377 9.24514 29.4857 12.3898 29.4857H18.2118V10.4229H43.4289V20.8818H37.1983V17.005Z" fill="#EEEEEE"/>
<path d="M35.0138 33.0308C35.0138 35.2227 33.2307 37 31.0304 37C28.829 37 27.0459 35.2227 27.0459 33.0308C27.0459 30.8389 28.829 29.0615 31.0304 29.0615C33.2307 29.0615 35.0138 30.8389 35.0138 33.0308Z" fill="#00ADB5"/>
<path d="M125.515 16.55H118.304V22.8696C118.304 30.3733 112.176 36.4782 104.643 36.4782H46.5596V29.8163H60.9875C64.5601 29.8163 67.4668 26.9207 67.4668 23.3618C67.4668 19.8018 64.5601 16.9061 60.9875 16.9061H55.7866V20.8818H49.0992V10.2454H60.9875C68.2468 10.2454 74.1542 16.1291 74.1542 23.3618C74.1542 25.7068 73.5331 27.9093 72.4468 29.8163H81.0965C80.0103 27.9093 79.3892 25.7068 79.3892 23.3618C79.3892 16.1291 85.2955 10.2454 92.5559 10.2454H104.444V20.8818H97.7568V16.9061H92.5559C88.9833 16.9061 86.0766 19.8018 86.0766 23.3618C86.0766 26.9207 88.9833 29.8163 92.5559 29.8163H104.643C108.488 29.8163 111.617 26.6996 111.617 22.8696V9.88818H125.515V16.55Z" fill="#EEEEEE"/>
<path d="M124.403 36.984C126.592 36.7681 128.192 34.8246 127.975 32.6432C127.758 30.4618 125.808 28.8684 123.618 29.0844C121.428 29.3003 119.829 31.2437 120.045 33.4252C120.262 35.6066 122.213 37.1999 124.403 36.984Z" fill="#00ADB5"/>
</svg>
