<svg width="97" height="29" viewBox="0 0 97 29" fill="none" xmlns="http://www.w3.org/2000/svg">
<path d="M9.59757 6.0802C11.2652 6.0802 12.617 4.7191 12.617 3.0401C12.617 1.3611 11.2652 0 9.59757 0C7.92998 0 6.57812 1.3611 6.57812 3.0401C6.57812 4.7191 7.92998 6.0802 9.59757 6.0802Z" fill="#00ADB5"/>
<path d="M30.5683 28.34C32.2359 28.34 33.5877 26.9789 33.5877 25.2999C33.5877 23.6209 32.2359 22.2598 30.5683 22.2598C28.9007 22.2598 27.5488 23.6209 27.5488 25.2999C27.5488 26.9789 28.9007 28.34 30.5683 28.34Z" fill="#00ADB5"/>
<path d="M28.1902 13.0245H18.869V27.6867H9.39447C6.90414 27.6852 4.51617 26.6888 2.75482 24.9162C0.993468 23.1437 0.00268889 20.7399 0 18.2325V7.98682H5.06776V18.2359C5.06865 19.3894 5.524 20.4954 6.33389 21.3113C7.14378 22.1271 8.24205 22.5862 9.3877 22.5877H13.8013V7.98682H32.9117V15.9931H28.1902V13.0245Z" fill="white"/>
<path d="M23.5165 28.34C25.1841 28.34 26.536 26.9789 26.536 25.2999C26.536 23.6209 25.1841 22.2598 23.5165 22.2598C21.8489 22.2598 20.4971 23.6209 20.4971 25.2999C20.4971 26.9789 21.8489 28.34 23.5165 28.34Z" fill="#00ADB5"/>
<path d="M95.1182 12.6766H89.6534V17.5156C89.6505 20.279 88.5588 22.9283 86.6181 24.8823C84.6774 26.8364 82.046 27.9354 79.3014 27.9384H35.2842V22.836H46.2183C46.8694 22.846 47.5159 22.7254 48.1203 22.4814C48.7248 22.2374 49.2749 21.8748 49.7389 21.4148C50.2028 20.9547 50.5712 20.4063 50.8227 19.8015C51.0742 19.1968 51.2037 18.5477 51.2037 17.892C51.2037 17.2364 51.0742 16.5873 50.8227 15.9825C50.5712 15.3778 50.2028 14.8294 49.7389 14.3693C49.2749 13.9092 48.7248 13.5466 48.1203 13.3026C47.5159 13.0587 46.8694 12.9381 46.2183 12.948H42.2773V15.9927H37.2084V7.84677H46.2183C47.9625 7.84581 49.6764 8.30537 51.1891 9.17961C52.7018 10.0539 53.9604 11.3122 54.8393 12.8291C55.7181 14.346 56.1865 16.0684 56.1978 17.8245C56.209 19.5806 55.7627 21.309 54.9033 22.8372H61.4576C60.5983 21.309 60.1519 19.5806 60.1631 17.8245C60.1744 16.0684 60.6428 14.346 61.5216 12.8291C62.4005 11.3122 63.6591 10.0539 65.1718 9.17961C66.6845 8.30537 68.3984 7.84581 70.1426 7.84677H79.1514V15.9927H74.0825V12.948H70.1415C69.4904 12.9381 68.8438 13.0587 68.2394 13.3026C67.635 13.5466 67.0848 13.9092 66.6209 14.3693C66.157 14.8294 65.7886 15.3778 65.5371 15.9825C65.2856 16.5873 65.1561 17.2364 65.1561 17.892C65.1561 18.5477 65.2856 19.1968 65.5371 19.8015C65.7886 20.4063 66.157 20.9547 66.6209 21.4148C67.0848 21.8748 67.635 22.2374 68.2394 22.4814C68.8438 22.7254 69.4904 22.846 70.1415 22.836H79.3014C80.7023 22.8342 82.0454 22.2731 83.036 21.2757C84.0266 20.2783 84.5839 18.9261 84.5857 17.5156V7.57422H95.1182V12.6766Z" fill="white"/>
<path d="M93.9804 28.34C95.648 28.34 96.9998 26.9789 96.9998 25.2999C96.9998 23.6209 95.648 22.2598 93.9804 22.2598C92.3128 22.2598 90.9609 23.6209 90.9609 25.2999C90.9609 26.9789 92.3128 28.34 93.9804 28.34Z" fill="#00ADB5"/>
</svg>
