<svg width="128" height="37" viewBox="0 0 128 37" fill="none" xmlns="http://www.w3.org/2000/svg">
<g clip-path="url(#clip0_103_1410)">
<path d="M16.5758 4.71933C16.992 2.56663 15.5775 0.485468 13.4166 0.0709299C11.2556 -0.343608 9.16647 1.06545 8.75035 3.21815C8.33422 5.37086 9.74868 7.45202 11.9096 7.86655C14.0706 8.28109 16.1597 6.87203 16.5758 4.71933Z" fill="black"/>
<path d="M44.2718 33.6667C44.6243 31.5028 43.1492 29.4639 40.977 29.1128C38.8048 28.7616 36.7582 30.2311 36.4056 32.3949C36.0531 34.5588 37.5282 36.5977 39.7004 36.9489C41.8726 37.3 43.9192 35.8306 44.2718 33.6667Z" fill="black"/>
<path d="M37.1983 17.005H24.8991V36.1476H12.3898C5.5584 36.1476 0 30.6104 0 23.805V10.4229H6.68736V23.805C6.68736 26.9377 9.24514 29.4857 12.3898 29.4857H18.2118V10.4229H43.4289V20.8818H37.1983V17.005Z" fill="black"/>
<path d="M35.0139 33.0308C35.0139 35.2227 33.2309 37 31.0305 37C28.8292 37 27.0461 35.2227 27.0461 33.0308C27.0461 30.8389 28.8292 29.0615 31.0305 29.0615C33.2309 29.0615 35.0139 30.8389 35.0139 33.0308Z" fill="black"/>
<path d="M125.515 16.55H118.305V22.8696C118.305 30.3733 112.176 36.4782 104.643 36.4782H46.5597V29.8163H60.9876C64.5602 29.8163 67.4669 26.9207 67.4669 23.3618C67.4669 19.8018 64.5602 16.9061 60.9876 16.9061H55.7867V20.8818H49.0993V10.2454H60.9876C68.2469 10.2454 74.1543 16.1291 74.1543 23.3618C74.1543 25.7068 73.5332 27.9093 72.447 29.8163H81.0967C80.0104 27.9093 79.3893 25.7068 79.3893 23.3618C79.3893 16.1291 85.2956 10.2454 92.556 10.2454H104.444V20.8818H97.7569V16.9061H92.556C88.9834 16.9061 86.0767 19.8018 86.0767 23.3618C86.0767 26.9207 88.9834 29.8163 92.556 29.8163H104.643C108.489 29.8163 111.617 26.6996 111.617 22.8696V9.88818H125.515V16.55Z" fill="black"/>
<path d="M124.403 36.984C126.592 36.7681 128.192 34.8246 127.975 32.6432C127.758 30.4618 125.807 28.8684 123.618 29.0844C121.428 29.3003 119.828 31.2437 120.045 33.4252C120.262 35.6066 122.213 37.1999 124.403 36.984Z" fill="black"/>
</g>
<defs>
<clipPath id="clip0_103_1410">
<rect width="128" height="37" fill="white"/>
</clipPath>
</defs>
</svg>
