<svg width="120" height="38" viewBox="0 0 120 38" fill="none" xmlns="http://www.w3.org/2000/svg">
<path d="M112.126 29.2395C113.721 29.2395 115.014 27.9559 115.014 26.3727C115.014 24.7894 113.721 23.5059 112.126 23.5059C110.532 23.5059 109.239 24.7894 109.239 26.3727C109.239 27.9559 110.532 29.2395 112.126 29.2395Z" fill="#00ADB5"/>
<path d="M23.1518 22.9837C23.129 22.0901 22.9334 21.2274 22.4318 20.4624C21.695 19.3353 20.6114 18.7157 19.3118 18.4249C19.1918 18.3963 19.0718 18.3797 19.0034 18.2581C20.3702 17.9007 21.389 17.1321 21.9218 15.806C22.2818 14.9028 22.2998 13.9579 22.205 13.0071C22.0442 11.4045 21.2798 10.2368 19.7474 9.60291C18.6998 9.17039 17.5958 9.04528 16.4858 9.03217C13.4858 8.99762 10.4858 9.01311 7.47983 9C7.20263 9 7.15703 9.11081 7.15823 9.35746C7.16303 15.7337 7.16303 22.1099 7.15823 28.4861C7.15823 28.79 7.24823 28.8674 7.54943 28.8662C10.4294 28.8567 13.301 28.8662 16.1774 28.8567C17.2923 28.8629 18.4011 28.6944 19.463 28.3575C20.753 27.9392 21.8378 27.2303 22.5098 26.0054C23.027 25.0569 23.1794 24.0334 23.1518 22.9837ZM11.7602 13.4992C11.7602 13.2907 11.8418 13.2311 12.0434 13.2347C12.7142 13.2442 13.3838 13.2347 14.0558 13.2347C14.7062 13.2347 15.3542 13.2347 16.0046 13.2776C17.0294 13.355 17.6222 13.9603 17.6774 14.9779C17.7194 15.7583 17.5154 16.4077 16.7798 16.7842C16.3937 16.9755 15.9681 17.075 15.5366 17.0749C14.363 17.0976 13.1882 17.088 12.0134 17.0964C11.8202 17.0964 11.7602 17.0177 11.7602 16.8343C11.7602 15.7245 11.7602 14.6129 11.7602 13.4992ZM16.6298 24.5517C15.845 24.6292 15.0578 24.5732 14.3498 24.5922C13.5242 24.5922 12.7802 24.5863 12.035 24.5922C11.8346 24.5922 11.7554 24.5398 11.7566 24.3301C11.7566 23.0921 11.7566 21.8541 11.7566 20.615C11.7566 20.4672 11.7638 20.3397 11.9654 20.3445C13.5362 20.3802 15.1106 20.2623 16.6802 20.4124C17.7806 20.5184 18.5042 21.3656 18.4802 22.4487C18.4598 23.6235 17.7398 24.4397 16.6238 24.5517H16.6298Z" fill="white"/>
<path d="M68.0127 21.6859C70.5159 21.705 72.2259 21.4202 72.4431 21.3809L68.0127 21.6859Z" fill="white"/>
<path d="M72.6056 9.26221L72.47 21.374H72.4424L68.012 21.6862H67.97V21.6397C67.97 20.6412 67.97 19.6416 67.97 18.6419C67.97 18.4655 67.9472 18.3726 67.7384 18.3309C66.974 18.1796 66.2096 18.0521 65.4296 18.1128C64.3952 18.1939 63.5228 18.6049 62.9552 19.5021C62.3696 20.4327 62.2808 21.4598 62.4812 22.5119C62.7092 23.7178 63.3776 24.5911 64.58 24.9736C65.0673 25.125 65.5771 25.1923 66.0872 25.1726V25.1726C66.0872 25.1726 70.0352 25.0391 72.4304 24.6102L72.3908 28.2193C70.5908 28.9021 68.7392 29.1725 66.7616 29.2524C65.3756 29.3036 64.0016 29.2405 62.696 28.7758C60.3548 27.9417 58.7612 26.357 58.0616 23.9656C57.493 22.0906 57.6112 20.0764 58.3952 18.2796C59.3324 16.0968 61.0436 14.7956 63.3512 14.244C64.7729 13.8985 66.2564 13.89 67.682 14.2189C67.7624 14.238 67.8452 14.2452 67.9676 14.263C67.9676 12.6152 67.9736 10.9911 67.9676 9.36588C67.9676 9.08825 68.0264 9.00842 68.3276 9.00842C69.6596 9.0251 70.9928 9.01914 72.3272 9.00842C72.5168 9.00365 72.6056 9.02153 72.6056 9.26221Z" fill="white"/>
<path d="M51.8008 18.7727C52.6593 18.9306 53.4655 19.296 54.148 19.8367C55.3708 20.8197 56.0212 22.0768 55.948 23.6674C55.8448 26.0135 54.5476 27.4898 52.4548 28.3692C50.8948 29.0221 49.258 29.1806 47.5852 29.1329C45.9907 29.0951 44.4119 28.8113 42.9052 28.2917C42.0421 27.9966 41.2221 27.5891 40.4668 27.08C40.3372 26.9918 40.318 26.9298 40.3948 26.7868C41.0004 25.6573 41.5984 24.5241 42.1888 23.3874C42.2872 23.198 42.3556 23.2218 42.5104 23.3219C44.74 24.7696 47.1568 25.2093 49.75 24.5944C50.962 24.3073 51.5968 23.3338 51.31 22.2519C51.1324 21.5775 50.6212 21.2117 50.0032 20.9615C49.1812 20.6291 48.3148 20.5635 47.4412 20.5528C47.0008 20.5468 46.5592 20.5468 46.1212 20.5528C45.9748 20.5528 45.922 20.5159 45.9232 20.3622C45.9292 19.31 45.9316 18.2579 45.9232 17.2058C45.9232 16.9925 46.0372 17.0068 46.1812 17.0068C47.0716 17.0068 47.9656 17.0402 48.8464 16.8591C49.3192 16.7626 49.7812 16.6446 50.1988 16.3825C50.782 16.0095 51.0616 15.5019 51.0196 14.8097C50.9776 14.1174 50.5852 13.6551 49.9768 13.3703C49.2568 13.0355 48.4864 12.9449 47.7064 12.9545C46.0852 12.9747 44.5468 13.3203 43.1464 14.1579C42.9124 14.2961 42.6904 14.4534 42.448 14.6119C41.7976 13.3894 41.1496 12.1657 40.4944 10.9456C40.4176 10.8026 40.5136 10.7728 40.5952 10.7144C41.3452 10.1746 42.2044 9.85532 43.0708 9.58008C45.0748 8.93546 47.134 8.57801 49.258 8.72695C50.7376 8.82942 52.1728 9.10466 53.44 9.91847C54.808 10.805 55.5052 12.0704 55.6 13.6956C55.684 15.1254 55.2064 16.336 54.2188 17.35C53.6256 17.9613 52.8806 18.4064 52.0588 18.6404C51.9724 18.6714 51.8692 18.669 51.8008 18.7727Z" fill="white"/>
<path d="M89.6644 19.5247C89.0644 17.1417 87.7312 15.3639 85.3444 14.506C83.9044 13.9901 82.414 13.9103 80.9116 14.1676C78.4432 14.5894 76.5916 15.856 75.5284 18.1485C74.9824 19.3257 74.8084 20.5768 74.8264 21.8637C74.866 25.2202 76.846 27.8749 80.05 28.8329C81.6568 29.3095 83.29 29.3297 84.9388 29.0843C86.4121 28.862 87.8282 28.3587 89.1088 27.602C89.1916 27.5544 89.3884 27.5496 89.2744 27.3506C88.624 26.2131 87.9732 25.0712 87.322 23.925C86.8137 24.2678 86.2653 24.5479 85.6888 24.7591C84.5068 25.1809 83.2948 25.4347 82.0576 25.0855C80.7736 24.7281 80.0176 23.8166 79.624 22.5381H80.0032C83.2248 22.5381 86.4468 22.5381 89.6692 22.5381C89.9032 22.5381 89.9908 22.4988 89.986 22.239C89.9837 21.325 89.8758 20.4143 89.6644 19.5247ZM85.0804 20.0442C84.1996 20.0442 83.3176 20.0442 82.4404 20.0442C81.58 20.0442 80.7196 20.0442 79.8592 20.0442C79.726 20.0442 79.6192 20.0681 79.6756 19.8548C80.2132 17.8733 82.5028 17.0166 84.16 18.1866C84.742 18.5977 85.078 19.1708 85.2652 19.8464C85.3204 20.0359 85.2352 20.0454 85.0804 20.0442Z" fill="white"/>
<path d="M38.3899 19.6165C38.3879 19.2625 38.3619 18.909 38.3119 18.5585C38.0851 16.9511 37.3699 15.6595 35.8591 14.8957C35.2579 14.6003 34.6156 14.3955 33.9535 14.2881C32.6899 14.0782 31.4035 14.0381 30.1291 14.1689C29.0429 14.254 27.9668 14.4379 26.9143 14.7182C26.7943 14.7528 26.6923 14.7873 26.6527 14.9398C26.3263 16.1993 25.9891 17.4563 25.6387 18.7765C26.6281 18.4492 27.6462 18.2142 28.6795 18.0747C29.8051 17.9198 30.9295 17.8209 32.0587 18.0425C33.2671 18.2809 33.8395 18.9636 33.8143 20.1432C33.8143 20.2921 33.7963 20.3815 33.6127 20.3446C33.0962 20.2643 32.5752 20.2154 32.0527 20.198C30.7171 20.1158 29.3923 20.1599 28.0927 20.4804C25.7167 21.0631 24.5263 22.5251 24.5767 24.8295C24.6127 26.4976 25.3651 27.7356 26.9035 28.4612C27.1873 28.5945 27.481 28.706 27.7819 28.7948C29.3575 29.2631 30.9751 29.3191 32.6059 29.2607C34.4591 29.1908 36.3043 28.9825 38.1259 28.6376C38.3791 28.5899 38.4127 28.4898 38.4115 28.2801C38.3911 25.3883 38.3995 22.5024 38.3899 19.6165ZM33.8059 24.3576C33.8059 24.7532 33.8059 25.1488 33.8059 25.5491C33.8059 25.6683 33.7915 25.735 33.6451 25.7505C32.6323 25.8601 31.6207 25.9554 30.6139 25.7279C29.7079 25.5205 29.2699 25.0129 29.2999 24.2361C29.3215 23.6582 29.6347 23.2829 30.1531 23.0791C30.8995 22.7824 31.6855 22.7753 32.4727 22.8241C32.8327 22.848 33.1795 22.898 33.5347 22.929C33.7315 22.9457 33.8215 23.0207 33.8107 23.2388C33.7915 23.6081 33.8059 23.9835 33.8059 24.3576V24.3576Z" fill="white"/>
<path d="M72.4431 21.375C72.2259 21.4143 70.5159 21.6991 68.0127 21.68L72.4431 21.375Z" fill="white"/>
<path d="M96.8402 28.8501C95.3714 28.8501 93.9026 28.8501 92.4326 28.8596C92.2886 28.8596 92.213 28.8287 92.2382 28.6726C92.2406 28.6412 92.2406 28.6098 92.2382 28.5784C92.2382 24.0793 92.2382 19.5797 92.2382 15.0797C92.2382 14.8569 92.2982 14.7759 92.5166 14.7437C94.7966 14.4053 97.0766 14.0288 99.3866 14.0455C100.499 14.0352 101.605 14.2212 102.652 14.5947C104.559 15.3013 105.604 16.674 105.853 18.6626C105.889 18.9412 105.907 19.2218 105.907 19.5026C105.907 22.5136 105.907 25.5234 105.918 28.5332C105.918 28.8275 105.825 28.8656 105.567 28.8632C104.255 28.8497 102.944 28.8497 101.632 28.8632C101.365 28.8632 101.281 28.8167 101.284 28.5296C101.297 25.832 101.291 23.1344 101.291 20.4368C101.291 20.3534 101.291 20.27 101.291 20.1866C101.257 18.9247 100.801 18.3671 99.5462 18.1967C98.6695 18.0971 97.7819 18.1516 96.9242 18.3576C96.8828 18.4646 96.872 18.5809 96.893 18.6936C96.893 21.9695 96.893 25.2454 96.893 28.5212C96.8798 28.6309 96.9242 28.75 96.8402 28.8501Z" fill="white"/>
</svg>
