<svg width="65" height="64" viewBox="0 0 65 64" fill="none" xmlns="http://www.w3.org/2000/svg">
<path d="M34.4109 59.7461H30.5879V63.5691H34.4109V59.7461Z" fill="#00ADB5"/>
<path d="M55.4385 5.41982V15.7802H51.6155V5.41982C51.6189 5.13106 51.5487 4.84618 51.4116 4.59203C51.2745 4.33787 51.075 4.1228 50.8318 3.96708C50.5899 3.80423 50.3118 3.70336 50.0218 3.67336C49.7318 3.64336 49.4388 3.68514 49.1688 3.79504C40.9111 7.10194 32.4622 11.4411 24.3192 15.7611H16.1953L22.3504 12.5688C30.5889 8.30619 39.0569 3.8715 47.4484 0.488136C48.8378 -0.105025 50.3983 -0.159541 51.8258 0.335216C52.8761 0.71092 53.7857 1.39999 54.4318 2.30931C55.0779 3.21863 55.4293 4.30437 55.4385 5.41982Z" fill="#00ADB5"/>
<path d="M59.4915 17.6934H5.49151C3.98387 17.758 2.56249 18.4144 1.53553 19.52C0.50858 20.6257 -0.0411648 22.0916 0.00549227 23.5999V57.5865C-0.0277692 58.3459 0.0902959 59.1044 0.35282 59.8178C0.615345 60.5312 1.01709 61.1853 1.53469 61.742C2.05229 62.2987 2.67542 62.747 3.36783 63.0607C4.06024 63.3745 4.80812 63.5474 5.56797 63.5695H24.8551V59.7465H5.74001C5.23304 59.7465 4.74685 59.5451 4.38837 59.1866C4.02989 58.8281 3.8285 58.3419 3.8285 57.835V23.4279C3.8285 22.9209 4.02989 22.4347 4.38837 22.0762C4.74685 21.7178 5.23304 21.5164 5.74001 21.5164H59.2621C59.7691 21.5164 60.2553 21.7178 60.6138 22.0762C60.9723 22.4347 61.1736 22.9209 61.1736 23.4279V32.9854H34.4126C32.3847 32.9854 30.4399 33.791 29.006 35.2249C27.5721 36.6588 26.7666 38.6036 26.7666 40.6314C26.7666 42.6593 27.5721 44.6041 29.006 46.038C30.4399 47.4719 32.3847 48.2774 34.4126 48.2774H61.1736V57.835C61.1736 58.3419 60.9723 58.8281 60.6138 59.1866C60.2553 59.5451 59.7691 59.7465 59.2621 59.7465H40.1471V63.5695H59.5106C61.0183 63.5048 62.4397 62.8485 63.4666 61.7428C64.4936 60.6371 65.0433 59.1712 64.9967 57.6629V23.619C65.0484 22.1043 64.4983 20.6307 63.4667 19.5203C62.4352 18.4099 61.006 17.7531 59.4915 17.6934ZM34.4126 44.4544C33.3987 44.4544 32.4263 44.0516 31.7093 43.3347C30.9924 42.6177 30.5896 41.6453 30.5896 40.6314C30.5896 39.6175 30.9924 38.6451 31.7093 37.9281C32.4263 37.2112 33.3987 36.8084 34.4126 36.8084H61.1736V44.4544H34.4126Z" fill="#00ADB5"/>
</svg>
