<svg width="65" height="66" viewBox="0 0 65 66" fill="none" xmlns="http://www.w3.org/2000/svg">
<g clip-path="url(#clip0_321_3069)">
<path d="M60.2015 38.9306C60.3944 39.7929 60.7235 40.6189 61.1765 41.3776C62.0941 43.1364 63.0882 45.2011 62.2471 46.9791C61.4059 48.757 59.1309 49.2732 57.1809 49.6556C56.3167 49.7524 55.4759 49.9982 54.6956 50.382C54.5098 51.242 54.4582 52.1255 54.5426 53.0012C54.5426 54.9129 54.6765 57.2453 53.0897 58.5261C51.5029 59.807 49.2662 59.2335 47.3544 58.7364C46.5178 58.4502 45.6386 58.308 44.7544 58.3159C44.2304 58.9988 43.8175 59.7601 43.5309 60.5717C42.7088 62.4835 41.8103 64.3953 39.7074 64.9688C37.6044 65.5423 36.0559 63.9556 34.5647 62.6747C33.9636 62.0515 33.2665 61.5287 32.5 61.1262C31.6861 61.5163 30.943 62.0397 30.3015 62.6747C29.1491 63.9533 27.5878 64.7914 25.8853 65.0453C25.6376 65.074 25.3874 65.074 25.1397 65.0453C23.1132 64.5673 22.1956 62.4835 21.3162 60.6482C21.027 59.828 20.6074 59.0598 20.0735 58.3732C19.1949 58.3769 18.3229 58.5255 17.4926 58.8129C15.5809 59.3291 13.4015 59.8835 11.7574 58.6026C10.1132 57.3217 10.2279 55.0659 10.3044 53.0585C10.387 52.1828 10.3355 51.2996 10.1515 50.4394C9.36631 50.0719 8.52717 49.8331 7.66618 49.732C5.75441 49.3497 3.47941 48.91 2.6 47.0556C1.72059 45.2011 2.75294 43.232 3.67059 41.4541C4.14344 40.6964 4.47989 39.8617 4.66471 38.9879C4.12324 38.3215 3.47767 37.7469 2.75294 37.2864C1.6761 36.5125 0.744184 35.5547 0 34.457H5.25735C6.6841 35.2704 7.77508 36.5647 8.33529 38.1085C8.47811 39.8616 8.01224 41.6103 7.01618 43.06C6.55884 43.805 6.22325 44.6181 6.02206 45.4688C6.82459 45.7446 7.64983 45.9493 8.48823 46.0806C10.2223 46.1843 11.8627 46.9028 13.1147 48.107C13.997 49.6181 14.3344 51.3861 14.0706 53.1159C13.968 53.9911 14.0197 54.8776 14.2235 55.735C15.0534 55.6387 15.8726 55.4659 16.6706 55.2188C17.7256 54.8923 18.8175 54.6996 19.9206 54.6453C20.5797 54.6121 21.2367 54.7435 21.8324 55.0276C23.2754 55.991 24.3316 57.4332 24.8147 59.0997C25.1142 59.9445 25.5536 60.733 26.1147 61.432C26.7974 60.9817 27.4373 60.4698 28.0265 59.9026C29.1779 58.5691 30.7613 57.6827 32.5 57.3982C34.253 57.6402 35.8643 58.4933 37.05 59.807C37.6633 60.4225 38.3738 60.9327 39.1529 61.3173C39.5998 60.58 39.9835 59.8061 40.3 59.0041C40.7831 57.3376 41.8394 55.8954 43.2824 54.932C44.9409 54.3971 46.735 54.4648 48.3485 55.1232C49.1743 55.4025 50.0387 55.5509 50.9103 55.5629C50.9949 54.7175 50.9949 53.8657 50.9103 53.0203C50.6287 51.2902 50.9672 49.5162 51.8662 48.0114C53.1182 46.8072 54.7586 46.0887 56.4926 45.985C57.3689 45.8759 58.2213 45.624 59.0162 45.2394C58.7334 44.4516 58.3815 43.6903 57.9647 42.9644C56.9686 41.5147 56.5028 39.766 56.6456 38.0129C57.2298 36.5016 58.3259 35.2432 59.7426 34.457H65C64.2089 35.5389 63.2314 36.4711 62.1132 37.21C61.393 37.684 60.7485 38.2641 60.2015 38.9306Z" fill="#00ADB5"/>
<path d="M65 30.6325H59.7426C58.3159 29.8191 57.2249 28.5248 56.6647 26.981C56.5219 25.228 56.9878 23.4792 57.9838 22.0296C58.4412 21.2846 58.7767 20.4714 58.9779 19.6207C58.1754 19.3449 57.3502 19.1402 56.5118 19.009C54.7777 18.9053 53.1373 18.1868 51.8853 16.9825C51.003 15.4714 50.6656 13.7035 50.9294 11.9737C51.0319 11.0921 50.9802 10.1993 50.7765 9.33545C49.9495 9.45741 49.1318 9.63627 48.3294 9.87074C46.7159 10.5291 44.9218 10.5968 43.2632 10.0619C41.8202 9.09851 40.764 7.6563 40.2809 5.98986C39.9814 5.145 39.542 4.35655 38.9809 3.65751C38.2982 4.10783 37.6583 4.61977 37.0691 5.18692C35.8936 6.54002 34.273 7.42828 32.5 7.69133C30.747 7.4493 29.1357 6.59624 27.95 5.28251C27.3367 4.66706 26.6262 4.1568 25.8471 3.77221C25.4002 4.50958 25.0165 5.28342 24.7 6.08545C24.2169 7.75189 23.1606 9.1941 21.7176 10.1575C20.0591 10.6924 18.265 10.6247 16.6515 9.96633C15.8257 9.68701 14.9613 9.53865 14.0897 9.52663C14.0051 10.3721 14.0051 11.2238 14.0897 12.0693C14.3713 13.7994 14.0328 15.5733 13.1338 17.0781C11.8818 18.2824 10.2414 19.0008 8.50735 19.1046C7.63111 19.2137 6.77865 19.4655 5.98382 19.8502C6.2666 20.638 6.61846 21.3993 7.0353 22.1252C8.03135 23.5748 8.49723 25.3235 8.35441 27.0766C7.77016 28.5879 6.67414 29.8463 5.25735 30.6325H0C0.79106 29.5506 1.7686 28.6184 2.88677 27.8796C3.60699 27.4055 4.25152 26.8255 4.79853 26.159C4.6056 25.2967 4.27647 24.4706 3.82353 23.7119C2.90588 21.9531 1.91176 19.8884 2.75294 18.1104C3.59412 16.3325 5.86912 15.8163 7.81912 15.434C8.68282 15.3349 9.5233 15.0892 10.3044 14.7075C10.4902 13.8476 10.5418 12.9641 10.4574 12.0884C10.4574 10.1766 10.3235 7.84427 11.9103 6.56339C13.4971 5.28251 15.7338 5.85604 17.6456 6.3531C18.4829 6.63648 19.3616 6.77861 20.2456 6.77369C20.7696 6.09076 21.1825 5.32944 21.4691 4.5178C22.2912 2.60604 23.1897 0.694273 25.2926 0.120744C27.3956 -0.452786 28.9441 1.13398 30.4353 2.41486C31.0366 3.03775 31.7337 3.56052 32.5 3.96339C33.3138 3.57291 34.0568 3.04957 34.6985 2.41486C36.1897 1.13398 37.9103 -0.318962 39.8412 0.120744C41.7721 0.56045 42.7853 2.68251 43.6647 4.5178C43.9539 5.33802 44.3735 6.10622 44.9074 6.7928C45.7859 6.78773 46.6576 6.63921 47.4882 6.3531C49.4 5.83692 51.5794 5.28251 53.2235 6.56339C54.8676 7.84427 54.7529 10.1002 54.6765 12.0884C54.5931 12.9705 54.6447 13.8601 54.8294 14.7266C55.6147 15.0938 56.4538 15.3326 57.3147 15.434C59.2265 15.8163 61.5015 16.256 62.3809 18.1104C63.2603 19.9649 62.2279 21.934 61.3103 23.7119C60.8374 24.4696 60.501 25.3043 60.3162 26.1781C60.8629 26.8394 61.5076 27.4132 62.2279 27.8796C63.3051 28.629 64.2431 29.5606 65 30.6325Z" fill="#00ADB5"/>
<path d="M30.2654 45.6798L26.8242 44.5709L34.7389 19.4121L38.1801 20.5209L30.2654 45.6798Z" fill="#00ADB5"/>
<path d="M45.1544 39.8104C43.8937 39.8179 42.6591 39.451 41.6072 38.7561C40.5553 38.0612 39.7334 37.0696 39.2456 35.907C38.7579 34.7444 38.6264 33.4632 38.8677 32.2258C39.109 30.9884 39.7123 29.8505 40.6011 28.9563C41.4899 28.0622 42.6241 27.452 43.8601 27.2033C45.096 26.9545 46.378 27.0783 47.5435 27.559C48.709 28.0397 49.7055 28.8557 50.4067 29.9034C51.108 30.9511 51.4823 32.1835 51.4824 33.4442C51.4849 34.2777 51.3232 35.1035 51.0065 35.8746C50.6899 36.6456 50.2245 37.3467 49.6369 37.9378C49.0493 38.529 48.351 38.9986 47.5819 39.3199C46.8128 39.6412 45.9879 39.8079 45.1544 39.8104ZM45.1544 30.7104C44.6109 30.6914 44.074 30.8349 43.6125 31.1227C43.151 31.4104 42.7858 31.8293 42.5636 32.3258C42.3414 32.8222 42.2724 33.3736 42.3653 33.9095C42.4582 34.4454 42.7088 34.9414 43.0851 35.3341C43.4614 35.7267 43.9463 35.9983 44.4778 36.1139C45.0092 36.2295 45.5631 36.1839 46.0685 35.9831C46.574 35.7822 47.008 35.4352 47.3151 34.9863C47.6223 34.5374 47.7885 34.0072 47.7926 33.4633C47.808 33.1036 47.7516 32.7445 47.6269 32.4068C47.5021 32.0691 47.3114 31.7596 47.0659 31.4963C46.8204 31.2329 46.5249 31.0211 46.1968 30.8731C45.8686 30.725 45.5143 30.6437 45.1544 30.6339V30.7104Z" fill="#00ADB5"/>
<path d="M19.8458 39.8104C18.5851 39.8179 17.3505 39.451 16.2986 38.7561C15.2467 38.0612 14.4248 37.0696 13.937 35.907C13.4493 34.7444 13.3178 33.4632 13.5591 32.2258C13.8004 30.9884 14.4037 29.8505 15.2925 28.9563C16.1813 28.0622 17.3155 27.452 18.5515 27.2033C19.7874 26.9545 21.0694 27.0783 22.2349 27.559C23.4004 28.0397 24.3969 28.8557 25.0982 29.9034C25.7994 30.9511 26.1737 32.1835 26.1738 33.4442C26.1763 34.2777 26.0146 35.1035 25.6979 35.8746C25.3813 36.6456 24.9159 37.3467 24.3283 37.9378C23.7407 38.529 23.0424 38.9986 22.2733 39.3199C21.5042 39.6412 20.6793 39.8079 19.8458 39.8104ZM19.8458 30.7104C19.3043 30.7066 18.7739 30.8637 18.3218 31.1618C17.8697 31.4599 17.5164 31.8855 17.3065 32.3847C17.0967 32.8839 17.0398 33.4342 17.1431 33.9657C17.2464 34.4973 17.5053 34.9862 17.8868 35.3704C18.2684 35.7547 18.7555 36.017 19.2863 36.124C19.8171 36.231 20.3678 36.178 20.8684 35.9717C21.3691 35.7653 21.7972 35.415 22.0984 34.965C22.3997 34.515 22.5605 33.9857 22.5605 33.4442C22.5734 33.0797 22.5126 32.7164 22.382 32.3759C22.2513 32.0355 22.0534 31.7248 21.8 31.4625C21.5466 31.2002 21.243 30.9917 20.9073 30.8493C20.5715 30.7069 20.2105 30.6337 19.8458 30.6339V30.7104Z" fill="#00ADB5"/>
</g>
<defs>
<clipPath id="clip0_321_3069">
<rect width="65" height="65.0891" fill="white"/>
</clipPath>
</defs>
</svg>
