<svg width="65" height="65" viewBox="0 0 65 65" fill="none" xmlns="http://www.w3.org/2000/svg">
<g clip-path="url(#clip0_321_765)">
<path d="M57.3533 32.3638C57.3719 38.6371 55.0174 44.6854 50.7623 49.295C46.5073 53.9047 40.6664 56.7347 34.4116 57.2173V53.3937C39.801 52.9017 44.7933 50.351 48.35 46.2721C51.9068 42.1932 53.7541 36.9002 53.5079 31.494C53.2617 26.0878 50.9407 20.9846 47.0279 17.246C43.1151 13.5073 37.9116 11.421 32.4998 11.421C27.088 11.421 21.8845 13.5073 17.9717 17.246C14.0589 20.9846 11.738 26.0878 11.4918 31.494C11.2455 36.9002 13.0929 42.1932 16.6496 46.2721C20.2064 50.351 25.1986 52.9017 30.588 53.3937V57.2173C25.7714 56.8456 21.1675 55.0783 17.3394 52.1314C13.5114 49.1846 10.6251 45.1859 9.0337 40.6246C7.4423 36.0633 7.21474 31.1371 8.37886 26.4485C9.54297 21.7599 12.0483 17.5122 15.5884 14.225C19.1285 10.9378 23.5498 8.75353 28.3117 7.93943C33.0736 7.12534 37.9695 7.71668 42.4005 9.64113C46.8316 11.5656 50.6058 14.7397 53.2614 18.7753C55.917 22.8108 57.339 27.5329 57.3533 32.3638Z" fill="#00ADB5"/>
<path d="M64.9992 32.3633C64.965 40.4606 61.9093 48.2536 56.4305 54.2161C50.9518 60.1785 43.4446 63.8811 35.379 64.5987C27.3134 65.3162 19.2705 62.9972 12.8252 58.0955C6.37985 53.1939 1.9964 46.0628 0.533203 38.0987H4.35681C5.77813 45.0617 9.73426 51.249 15.4582 55.4609C21.1822 59.6729 28.2661 61.6094 35.3368 60.8951C42.4074 60.1809 48.961 56.8666 53.7269 51.595C58.4928 46.3234 61.1315 39.4699 61.1315 32.3633C61.1315 25.2567 58.4928 18.4032 53.7269 13.1316C48.961 7.85995 42.4074 4.54573 35.3368 3.83145C28.2661 3.11717 21.1822 5.05372 15.4582 9.26566C9.73426 13.4776 5.77813 19.6648 4.35681 26.6279H0.533203C1.9964 18.6638 6.37985 11.5327 12.8252 6.63106C19.2705 1.72944 27.3134 -0.589642 35.379 0.127934C43.4446 0.84551 50.9518 4.54806 56.4305 10.5105C61.9093 16.473 64.965 24.266 64.9992 32.3633Z" fill="#00ADB5"/>
<path d="M42.0607 30.4513V34.2749H30.5898V18.9805H34.4135V30.4513H42.0607Z" fill="#00ADB5"/>
<path d="M3.82361 30.4512H0V34.2748H3.82361V30.4512Z" fill="#00ADB5"/>
</g>
<defs>
<clipPath id="clip0_321_765">
<rect width="65" height="64.7266" fill="white"/>
</clipPath>
</defs>
</svg>
