<svg width="186" height="70" viewBox="0 0 186 70" fill="none" xmlns="http://www.w3.org/2000/svg">
<path d="M46.576 18.4027C46.9921 16.25 45.5777 14.1688 43.4167 13.7543C41.2558 13.3397 39.1667 14.7488 38.7505 16.9015C38.3344 19.0542 39.7489 21.1354 41.9098 21.5499C44.0708 21.9644 46.1599 20.5554 46.576 18.4027Z" fill="#00ADB5"/>
<path d="M74.272 47.35C74.6245 45.1862 73.1494 43.1473 70.9773 42.7961C68.8051 42.4449 66.7584 43.9144 66.4059 46.0783C66.0534 48.2422 67.5285 50.281 69.7006 50.6322C71.8728 50.9834 73.9195 49.5139 74.272 47.35Z" fill="#00ADB5"/>
<path d="M67.1983 30.6883H54.8991V49.8309H42.3898C35.5584 49.8309 30 44.2937 30 37.4884V24.1062H36.6874V37.4884C36.6874 40.621 39.2451 43.1691 42.3898 43.1691H48.2118V24.1062H73.4289V34.5651H67.1983V30.6883Z" fill="black"/>
<path d="M65.0138 46.7141C65.0138 48.906 63.2307 50.6834 61.0304 50.6834C58.829 50.6834 57.0459 48.906 57.0459 46.7141C57.0459 44.5222 58.829 42.7449 61.0304 42.7449C63.2307 42.7449 65.0138 44.5222 65.0138 46.7141Z" fill="#00ADB5"/>
<path d="M155.515 30.2334H148.304V36.5529C148.304 44.0567 142.176 50.1615 134.643 50.1615H76.5596V43.4997H90.9875C94.5601 43.4997 97.4668 40.6041 97.4668 37.0451C97.4668 33.4851 94.5601 30.5895 90.9875 30.5895H85.7866V34.5651H79.0992V23.9287H90.9875C98.2468 23.9287 104.154 29.8124 104.154 37.0451C104.154 39.3901 103.533 41.5926 102.447 43.4997H111.097C110.01 41.5926 109.389 39.3901 109.389 37.0451C109.389 29.8124 115.295 23.9287 122.556 23.9287H134.444V34.5651H127.757V30.5895H122.556C118.983 30.5895 116.077 33.4851 116.077 37.0451C116.077 40.6041 118.983 43.4997 122.556 43.4997H134.643C138.488 43.4997 141.617 40.3829 141.617 36.5529V23.5715H155.515V30.2334Z" fill="black"/>
<path d="M154.403 50.6673C156.592 50.4514 158.192 48.508 157.975 46.3266C157.758 44.1451 155.808 42.5518 153.618 42.7677C151.428 42.9836 149.829 44.9271 150.045 47.1085C150.262 49.2899 152.213 50.8833 154.403 50.6673Z" fill="#00ADB5"/>
<rect x="130.119" width="59" height="11.2378" rx="5.61889" transform="rotate(21.5 130.119 0)" fill="white"/>
<path d="M140.283 12.666L140.609 12.2654C140.836 12.3548 141.081 12.4364 141.344 12.51C141.609 12.5799 141.88 12.6286 142.157 12.6561C142.44 12.6814 142.719 12.6755 142.996 12.6383C143.273 12.6012 143.535 12.5196 143.782 12.3935L144.053 12.7386C143.986 12.811 143.936 12.8711 143.904 12.9188C143.874 12.9628 143.851 13.0052 143.835 13.0462C143.813 13.102 143.812 13.164 143.833 13.2323C143.854 13.2968 143.915 13.3678 144.013 13.4452C144.115 13.5242 144.271 13.6047 144.479 13.6868C144.557 13.7176 144.604 13.7619 144.62 13.8198C144.641 13.8753 144.64 13.9329 144.616 13.9925C144.593 14.052 144.545 14.0976 144.472 14.1292C144.401 14.157 144.325 14.1548 144.243 14.1226C144.005 14.0287 143.804 13.9217 143.641 13.8015C143.482 13.679 143.38 13.5462 143.333 13.4031C143.292 13.2578 143.32 13.1035 143.419 12.9403L143.506 13.0134C143.304 13.0887 143.08 13.1356 142.832 13.154C142.589 13.1701 142.328 13.1618 142.048 13.1291C141.772 13.0979 141.485 13.0426 141.185 12.9632C140.889 12.8853 140.588 12.7862 140.283 12.666ZM140.283 12.666C139.952 12.5355 139.669 12.3981 139.433 12.2538C139.2 12.1146 139.017 11.9674 138.885 11.8121C138.752 11.6568 138.671 11.4916 138.642 11.3164C138.613 11.1376 138.639 10.9458 138.72 10.7411C138.756 10.6481 138.801 10.5561 138.854 10.4652C138.909 10.3706 138.967 10.2774 139.029 10.1857C139.094 10.0955 139.159 10.009 139.221 9.92621L139.598 10.1972C139.561 10.2472 139.518 10.3076 139.469 10.3784C139.421 10.4455 139.374 10.5152 139.328 10.5875C139.287 10.6612 139.253 10.7297 139.228 10.793C139.152 10.9865 139.139 11.1619 139.189 11.3191C139.244 11.4741 139.383 11.6278 139.607 11.7804C139.832 11.9293 140.166 12.0909 140.609 12.2654L140.61 12.5885L140.283 12.666ZM140.273 13.8872C140.195 13.8564 140.139 13.8021 140.105 13.7243C140.073 13.6517 140.072 13.5781 140.101 13.5037C140.131 13.4293 140.182 13.3744 140.257 13.3391C140.334 13.3053 140.412 13.3037 140.491 13.3345C140.565 13.3638 140.617 13.4167 140.647 13.493C140.681 13.5708 140.683 13.647 140.654 13.7214C140.625 13.7958 140.572 13.8481 140.496 13.8782C140.422 13.9135 140.347 13.9165 140.273 13.8872ZM144.242 14.1221L144.478 13.6863C144.697 13.7728 144.871 13.8328 145 13.8663C145.13 13.896 145.235 13.8877 145.313 13.8412C145.393 13.791 145.462 13.6915 145.521 13.5426C145.558 13.4496 145.586 13.334 145.606 13.1957C145.628 13.0537 145.643 12.9006 145.651 12.7364C145.66 12.5722 145.665 12.4084 145.665 12.245L146.183 12.2556C146.184 12.3938 146.175 12.5472 146.156 12.7159C146.141 12.8861 146.119 13.0515 146.09 13.2121C146.061 13.3727 146.024 13.5088 145.98 13.6204C145.907 13.8065 145.819 13.9544 145.715 14.0642C145.616 14.1754 145.496 14.2507 145.355 14.29C145.215 14.3294 145.052 14.334 144.866 14.3037C144.684 14.275 144.476 14.2144 144.242 14.1221ZM144.859 15.584C144.781 15.5532 144.725 15.4989 144.691 15.4211C144.659 15.3484 144.658 15.2749 144.687 15.2005C144.717 15.1261 144.768 15.0712 144.842 15.0359C144.92 15.002 144.998 15.0005 145.076 15.0313C145.151 15.0606 145.203 15.1135 145.233 15.1898C145.267 15.2676 145.269 15.3438 145.24 15.4182C145.211 15.4926 145.158 15.5449 145.081 15.575C145.007 15.6103 144.933 15.6133 144.859 15.584ZM144.094 15.2827C144.016 15.2519 143.96 15.1976 143.926 15.1198C143.894 15.0472 143.893 14.9737 143.923 14.8992C143.952 14.8248 144.004 14.7699 144.078 14.7346C144.155 14.7008 144.233 14.6993 144.312 14.73C144.386 14.7594 144.438 14.8122 144.468 14.8885C144.502 14.9664 144.505 15.0425 144.475 15.1169C144.446 15.1914 144.393 15.2436 144.317 15.2737C144.243 15.309 144.168 15.312 144.094 15.2827ZM145.433 16.0552L145.438 15.5672C145.745 15.5849 146.01 15.5712 146.235 15.5262C146.462 15.4827 146.654 15.4163 146.81 15.3271C146.969 15.2394 147.097 15.1373 147.195 15.0209C147.293 14.9008 147.368 14.7775 147.418 14.6509C147.49 14.4686 147.521 14.2682 147.513 14.0499C147.509 13.8293 147.492 13.6162 147.461 13.4106L147.95 13.3646C147.97 13.5227 147.98 13.6753 147.983 13.8223C147.989 13.9709 147.99 14.109 147.987 14.2368C147.988 14.366 147.983 14.4823 147.972 14.5856C147.961 14.7662 147.985 14.9023 148.043 14.9941C148.107 15.0837 148.211 15.1571 148.357 15.2142C148.435 15.245 148.482 15.2893 148.498 15.3472C148.519 15.4028 148.518 15.4604 148.494 15.5199C148.471 15.5794 148.423 15.625 148.35 15.6566C148.279 15.6844 148.202 15.6823 148.12 15.65C147.957 15.5855 147.834 15.5048 147.751 15.4079C147.674 15.3088 147.628 15.2025 147.613 15.0889C147.599 14.9716 147.603 14.8572 147.625 14.7457L147.764 14.9165C147.668 15.1621 147.524 15.3634 147.333 15.5204C147.145 15.6826 146.935 15.8044 146.706 15.8859C146.474 15.971 146.246 16.0253 146.022 16.0488C145.798 16.0722 145.602 16.0744 145.433 16.0552ZM148.123 15.6511L148.359 15.2153C148.452 15.2519 148.555 15.2923 148.666 15.3362C148.783 15.378 148.9 15.4197 149.017 15.4614C149.137 15.5046 149.25 15.5404 149.355 15.5688C149.461 15.5935 149.552 15.6079 149.628 15.612C149.781 15.6163 149.909 15.5978 150.011 15.5565C150.115 15.5113 150.205 15.4351 150.282 15.3277C150.364 15.2181 150.442 15.0684 150.517 14.8786C150.578 14.7223 150.615 14.5691 150.627 14.419C150.639 14.2689 150.624 14.1382 150.581 14.027C150.539 13.9158 150.466 13.8397 150.362 13.7987C150.276 13.7649 150.185 13.7676 150.088 13.8068C149.996 13.8437 149.91 13.9043 149.829 13.9886C149.752 14.0745 149.694 14.1676 149.655 14.2681C149.624 14.3463 149.612 14.4191 149.62 14.4867C149.632 14.5557 149.668 14.6216 149.729 14.6844C149.792 14.7435 149.883 14.7965 150.002 14.8434C150.11 14.8859 150.222 14.9173 150.339 14.9375C150.459 14.9591 150.566 14.9667 150.659 14.9603L150.527 15.3599C150.451 15.3774 150.371 15.3845 150.287 15.3812C150.202 15.3779 150.116 15.3657 150.03 15.3447C149.944 15.3236 149.86 15.2969 149.778 15.2647C149.588 15.1899 149.438 15.0963 149.327 14.984C149.222 14.8694 149.155 14.7461 149.125 14.6141C149.1 14.4797 149.115 14.3437 149.17 14.206C149.225 14.0646 149.303 13.932 149.404 13.8081C149.505 13.6806 149.621 13.5734 149.75 13.4866C149.878 13.3997 150.014 13.3437 150.158 13.3184C150.302 13.2894 150.445 13.3028 150.587 13.3585C150.788 13.4376 150.928 13.568 151.007 13.7496C151.089 13.9326 151.121 14.1427 151.1 14.3797C151.085 14.6145 151.031 14.8491 150.939 15.0836C150.829 15.3627 150.686 15.5837 150.51 15.7466C150.339 15.9072 150.119 16.0094 149.848 16.0531C149.743 16.0678 149.623 16.0677 149.487 16.0528C149.356 16.0357 149.214 16.0078 149.062 15.9692C148.913 15.9321 148.76 15.8847 148.602 15.8268C148.443 15.7727 148.283 15.7141 148.123 15.6511ZM151.098 12.8956C151.02 12.8648 150.963 12.8124 150.928 12.7383C150.898 12.662 150.897 12.5866 150.927 12.5121C150.956 12.4377 151.008 12.3828 151.082 12.3475C151.16 12.3137 151.238 12.3122 151.316 12.343C151.39 12.3723 151.442 12.4251 151.473 12.5015C151.506 12.5793 151.509 12.6554 151.479 12.7298C151.45 12.8043 151.396 12.8584 151.319 12.8922C151.246 12.9238 151.172 12.9249 151.098 12.8956ZM150.333 12.5944C150.255 12.5636 150.198 12.5111 150.163 12.437C150.133 12.3607 150.132 12.2853 150.162 12.2109C150.191 12.1364 150.243 12.0816 150.317 12.0463C150.395 12.0124 150.473 12.0109 150.551 12.0417C150.625 12.071 150.678 12.1239 150.708 12.2002C150.742 12.278 150.744 12.3541 150.714 12.4286C150.685 12.503 150.632 12.5571 150.554 12.591C150.481 12.6226 150.408 12.6237 150.333 12.5944ZM152.366 17.2967C152.419 17.1627 152.496 17.0212 152.598 16.8721C152.7 16.723 152.83 16.566 152.99 16.401L153.33 16.7156C153.209 16.8485 153.108 16.9742 153.027 17.0927C152.946 17.2112 152.883 17.3263 152.839 17.438C152.759 17.6426 152.744 17.8281 152.795 17.9942C152.847 18.1655 152.948 18.3146 153.095 18.4416C153.247 18.5701 153.427 18.6753 153.635 18.7574C153.888 18.8571 154.111 18.9128 154.305 18.9244C154.496 18.9397 154.661 18.9206 154.798 18.8672C154.935 18.8137 155.048 18.7355 155.135 18.6325C155.226 18.5348 155.296 18.4226 155.345 18.2961C155.41 18.1323 155.458 17.9727 155.489 17.8173C155.524 17.6634 155.548 17.5095 155.561 17.3557C155.58 17.1996 155.595 17.0402 155.608 16.8774L156.108 16.9327C156.093 17.0903 156.08 17.2181 156.067 17.3162C156.055 17.4106 156.045 17.4861 156.036 17.5426C156.03 17.6006 156.025 17.6522 156.02 17.6975C156.006 17.8514 156.02 17.975 156.061 18.0684C156.103 18.158 156.162 18.2309 156.239 18.2869C156.321 18.3407 156.408 18.3859 156.501 18.4226C156.58 18.4534 156.627 18.4977 156.643 18.5555C156.664 18.6111 156.662 18.6687 156.639 18.7283C156.616 18.7878 156.567 18.8334 156.495 18.8649C156.424 18.8928 156.347 18.8906 156.265 18.8584C156.109 18.7968 155.989 18.7194 155.905 18.6263C155.823 18.5294 155.768 18.4283 155.741 18.323C155.717 18.2191 155.714 18.1188 155.731 18.0222L155.847 18.397C155.761 18.5825 155.652 18.752 155.518 18.9057C155.387 19.0646 155.225 19.1903 155.034 19.2826C154.842 19.3787 154.613 19.4241 154.348 19.4188C154.088 19.415 153.784 19.3449 153.438 19.2086C153.226 19.125 153.035 19.0198 152.866 18.8929C152.697 18.7661 152.559 18.6194 152.453 18.4528C152.349 18.2914 152.286 18.112 152.265 17.9145C152.246 17.7222 152.28 17.5163 152.366 17.2967ZM154.93 15.7334C154.852 15.7026 154.795 15.6502 154.759 15.5761C154.729 15.4997 154.729 15.4243 154.758 15.3499C154.788 15.2755 154.839 15.2206 154.913 15.1853C154.991 15.1515 155.069 15.1499 155.147 15.1807C155.222 15.21 155.274 15.2629 155.304 15.3392C155.338 15.417 155.34 15.4932 155.311 15.5676C155.282 15.642 155.228 15.6962 155.15 15.73C155.078 15.7616 155.004 15.7627 154.93 15.7334ZM156.268 18.8594L156.504 18.4236C156.739 18.516 156.92 18.5852 157.048 18.6313C157.179 18.6789 157.276 18.7126 157.337 18.7323C157.399 18.7483 157.442 18.7607 157.464 18.7695C157.412 18.7059 157.356 18.6174 157.298 18.5041C157.241 18.387 157.203 18.2539 157.184 18.1047C157.167 17.9518 157.192 17.7897 157.26 17.6185C157.343 17.4064 157.465 17.2394 157.625 17.1175C157.788 16.997 157.973 16.9258 158.18 16.904C158.39 16.8835 158.606 16.9173 158.83 17.0053C158.915 17.039 159.004 17.0823 159.094 17.1353C159.185 17.1884 159.27 17.2473 159.347 17.3123L159.083 17.7048C159.016 17.6568 158.944 17.6112 158.866 17.5677C158.789 17.5243 158.716 17.4894 158.649 17.463C158.515 17.4103 158.386 17.3894 158.261 17.4005C158.138 17.4078 158.029 17.4444 157.934 17.5102C157.84 17.5761 157.767 17.6723 157.717 17.7988C157.679 17.8956 157.665 17.993 157.673 18.091C157.683 18.1853 157.71 18.2772 157.752 18.3669C157.794 18.4566 157.848 18.538 157.913 18.6112C157.979 18.6844 158.047 18.7475 158.116 18.8006C158.189 18.8552 158.258 18.8931 158.323 18.9143C158.373 18.917 158.419 18.9201 158.461 18.9236C158.503 18.9271 158.549 18.9302 158.599 18.9329C158.655 18.9334 158.722 18.9319 158.801 18.9285C158.883 18.9266 158.988 18.9227 159.115 18.9168L159.111 19.3859C158.822 19.3882 158.532 19.3771 158.24 19.3526C157.953 19.3296 157.648 19.2803 157.325 19.2048C157.007 19.127 156.655 19.0118 156.268 18.8594ZM162.27 21.2237C161.972 21.1064 161.757 20.9828 161.623 20.8527C161.493 20.7242 161.426 20.5775 161.422 20.4126C161.419 20.2477 161.457 20.0521 161.537 19.8259L162.629 16.7283L163.086 16.9086L162.066 19.8276C162.001 20.0129 161.962 20.1609 161.949 20.2717C161.94 20.3801 161.977 20.4721 162.059 20.5474C162.145 20.6242 162.294 20.7044 162.506 20.7879C162.584 20.8187 162.631 20.863 162.647 20.9209C162.668 20.9765 162.667 21.0341 162.644 21.0936C162.62 21.1532 162.572 21.1987 162.5 21.2303C162.429 21.2582 162.352 21.256 162.27 21.2237ZM162.27 21.2237L162.506 20.788C162.689 20.8598 162.838 20.9058 162.955 20.926C163.072 20.9462 163.167 20.9323 163.242 20.8844C163.318 20.8327 163.384 20.738 163.438 20.6003C163.475 20.5073 163.503 20.3916 163.523 20.2534C163.545 20.1114 163.56 19.9583 163.569 19.7941C163.577 19.6299 163.582 19.4661 163.582 19.3027L164.1 19.3133C164.101 19.4515 164.092 19.6049 164.073 19.7736C164.058 19.9438 164.036 20.1092 164.007 20.2698C163.978 20.4304 163.941 20.5665 163.897 20.6781C163.839 20.827 163.77 20.9525 163.691 21.0547C163.617 21.1546 163.533 21.2331 163.437 21.29C163.343 21.3433 163.236 21.3761 163.115 21.3887C162.999 21.3989 162.871 21.3914 162.73 21.3662C162.591 21.3372 162.438 21.2897 162.27 21.2237ZM164.111 18.647C164.032 18.6162 163.976 18.5637 163.94 18.4897C163.91 18.4133 163.91 18.3379 163.939 18.2635C163.969 18.189 164.02 18.1342 164.094 18.0989C164.172 18.065 164.25 18.0635 164.328 18.0943C164.403 18.1236 164.455 18.1765 164.485 18.2528C164.519 18.3306 164.521 18.4067 164.492 18.4812C164.463 18.5556 164.409 18.6098 164.331 18.6436C164.259 18.6752 164.185 18.6763 164.111 18.647ZM163.598 23.1979L163.678 22.7006C163.913 22.7587 164.135 22.7966 164.343 22.814C164.553 22.8367 164.745 22.8242 164.919 22.7765C165.096 22.7302 165.254 22.6399 165.393 22.5055C165.532 22.371 165.65 22.181 165.747 21.9354C165.792 21.82 165.824 21.7058 165.843 21.5928C165.863 21.4761 165.867 21.368 165.855 21.2685C165.842 21.169 165.814 21.0827 165.77 21.0094C165.729 20.9375 165.67 20.8862 165.592 20.8554C165.506 20.8217 165.415 20.8244 165.318 20.8636C165.226 20.9004 165.139 20.9611 165.059 21.0454C164.982 21.1312 164.924 21.2244 164.884 21.3249C164.854 21.403 164.841 21.4777 164.848 21.549C164.859 21.618 164.896 21.6821 164.959 21.7412C165.022 21.8003 165.113 21.8533 165.232 21.9002C165.34 21.9427 165.452 21.9741 165.569 21.9942C165.689 22.0159 165.796 22.0235 165.889 22.0171L165.757 22.4166C165.643 22.4447 165.519 22.4476 165.386 22.4253C165.257 22.4044 165.131 22.3698 165.008 22.3214C164.866 22.2657 164.746 22.201 164.646 22.1272C164.549 22.0549 164.473 21.9755 164.417 21.8889C164.366 21.8 164.338 21.7029 164.332 21.5974C164.33 21.4934 164.352 21.3819 164.399 21.2628C164.455 21.1214 164.533 20.9888 164.633 20.8649C164.735 20.7374 164.851 20.6302 164.979 20.5433C165.108 20.4565 165.244 20.4004 165.387 20.3752C165.532 20.3462 165.675 20.3595 165.817 20.4153C165.965 20.4739 166.08 20.5643 166.161 20.6864C166.244 20.8048 166.296 20.9438 166.319 21.1034C166.343 21.263 166.34 21.432 166.313 21.6104C166.286 21.7888 166.238 21.9655 166.169 22.1404C166.033 22.4865 165.845 22.7564 165.605 22.95C165.367 23.1489 165.08 23.2677 164.742 23.3066C164.408 23.347 164.027 23.3108 163.598 23.1979ZM165.794 24.0627L165.799 23.5747C166.222 23.6036 166.567 23.574 166.834 23.4856C167.103 23.4025 167.31 23.2863 167.455 23.137C167.603 22.9891 167.71 22.8333 167.774 22.6696C167.815 22.5654 167.844 22.4605 167.859 22.3549C167.875 22.2494 167.879 22.1242 167.872 21.9794C167.865 21.8346 167.846 21.6512 167.818 21.4293L168.307 21.3832C168.353 21.6808 168.363 21.9493 168.338 22.1886C168.316 22.4294 168.273 22.6317 168.208 22.7954C168.116 23.0299 167.993 23.2266 167.84 23.3856C167.691 23.5461 167.525 23.674 167.341 23.7693C167.16 23.8698 166.974 23.9428 166.784 23.9884C166.598 24.0354 166.417 24.0631 166.242 24.0715C166.07 24.0813 165.921 24.0784 165.794 24.0627ZM168.145 24.9889L168.225 24.4915C168.46 24.5497 168.682 24.5876 168.89 24.605C169.1 24.6277 169.292 24.6152 169.465 24.5675C169.643 24.5212 169.801 24.4309 169.94 24.2965C170.079 24.162 170.197 23.972 170.293 23.7264C170.393 23.4733 170.429 23.2447 170.402 23.0406C170.375 22.8364 170.287 22.7051 170.138 22.6464C170.06 22.6156 169.976 22.6168 169.885 22.65C169.795 22.6831 169.708 22.7412 169.623 22.824C169.543 22.9084 169.479 23.0101 169.432 23.1292C169.406 23.1962 169.399 23.2579 169.411 23.3143C169.425 23.367 169.454 23.4173 169.5 23.4654C169.55 23.5111 169.618 23.5572 169.703 23.6036C169.788 23.6499 169.89 23.6965 170.009 23.7435L171.187 24.2074C171.265 24.2382 171.312 24.2825 171.328 24.3404C171.349 24.396 171.348 24.4536 171.325 24.5131C171.301 24.5727 171.253 24.6182 171.181 24.6498C171.109 24.6777 171.033 24.6755 170.951 24.6432L169.617 24.1177C169.449 24.0517 169.303 23.9659 169.176 23.8604C169.054 23.7563 168.968 23.6364 168.918 23.5007C168.874 23.3628 168.884 23.2101 168.95 23.0426C169.012 22.8863 169.095 22.747 169.199 22.6246C169.304 22.4985 169.42 22.3958 169.546 22.3164C169.677 22.2347 169.812 22.1824 169.95 22.1594C170.091 22.1378 170.229 22.1535 170.363 22.2062C170.534 22.2737 170.667 22.384 170.762 22.5373C170.856 22.6905 170.902 22.8849 170.9 23.1204C170.899 23.3521 170.837 23.6225 170.716 23.9314C170.579 24.2775 170.391 24.5474 170.152 24.741C169.914 24.9398 169.627 25.0587 169.289 25.0976C168.955 25.138 168.574 25.1018 168.145 24.9889ZM170.949 24.6425L171.185 24.2067C171.368 24.2786 171.517 24.3246 171.634 24.3448C171.751 24.3649 171.846 24.3511 171.921 24.3031C171.997 24.2515 172.063 24.1568 172.117 24.0191C172.154 23.9261 172.182 23.8104 172.202 23.6721C172.224 23.5302 172.239 23.3771 172.248 23.2129C172.256 23.0487 172.261 22.8849 172.261 22.7214L172.779 22.7321C172.78 22.8702 172.771 23.0237 172.752 23.1924C172.737 23.3626 172.715 23.528 172.686 23.6885C172.657 23.8491 172.62 23.9853 172.576 24.0969C172.518 24.2458 172.449 24.3713 172.37 24.4735C172.296 24.5734 172.212 24.6518 172.116 24.7088C172.022 24.762 171.915 24.7949 171.794 24.8074C171.678 24.8177 171.55 24.8102 171.409 24.7849C171.27 24.756 171.117 24.7085 170.949 24.6425ZM172.79 22.0657C172.712 22.035 172.655 21.9825 172.62 21.9084C172.589 21.8321 172.589 21.7567 172.618 21.6822C172.648 21.6078 172.699 21.5529 172.773 21.5176C172.851 21.4838 172.929 21.4823 173.007 21.5131C173.082 21.5424 173.134 21.5952 173.164 21.6716C173.198 21.7494 173.2 21.8255 173.171 21.9C173.142 21.9744 173.088 22.0285 173.01 22.0624C172.938 22.0939 172.864 22.0951 172.79 22.0657Z" fill="#00ADB5"/>
<rect x="4.11865" y="37" width="59" height="11.2378" rx="5.61889" transform="rotate(21.5 4.11865 37)" fill="black"/>
<path d="M16.5589 47.1473L16.0673 46.9536C16.0939 46.8008 16.092 46.6565 16.0614 46.5208C16.0322 46.3857 15.9804 46.2614 15.906 46.1481C15.8333 46.034 15.7422 45.934 15.6326 45.8481C15.5229 45.7621 15.4007 45.6926 15.2659 45.6395C15.02 45.5427 14.7729 45.5171 14.5244 45.5627C14.2772 45.6088 14.0472 45.7297 13.8343 45.9252C13.6227 46.1212 13.4477 46.395 13.3092 46.7466C13.1707 47.0981 13.112 47.4177 13.133 47.7054C13.1554 47.9936 13.2412 48.2389 13.3905 48.4412C13.5412 48.644 13.7394 48.7939 13.9852 48.8907C14.12 48.9438 14.2568 48.9763 14.3956 48.9882C14.5344 49.0002 14.669 48.9898 14.7994 48.9572C14.9317 48.9238 15.0546 48.8676 15.1681 48.7887C15.2835 48.709 15.3833 48.6048 15.4675 48.4761L15.9592 48.6698C15.8404 48.8627 15.6999 49.0219 15.5375 49.1472C15.3752 49.2726 15.1987 49.3641 15.008 49.4218C14.8179 49.4782 14.6205 49.5005 14.4161 49.4886C14.2129 49.4773 14.0089 49.4313 13.804 49.3506C13.4578 49.2142 13.1831 49.0083 12.9802 48.733C12.7772 48.4576 12.6598 48.1335 12.6281 47.7607C12.5963 47.3879 12.6647 46.9874 12.8334 46.5592C13.0021 46.131 13.2252 45.7914 13.5027 45.5404C13.7802 45.2894 14.087 45.1324 14.4233 45.0694C14.7595 45.0065 15.1008 45.0432 15.447 45.1796C15.6519 45.2603 15.8325 45.3658 15.9888 45.496C16.1464 45.6268 16.2753 45.7784 16.3754 45.9506C16.476 46.1215 16.5429 46.3082 16.5761 46.5106C16.6099 46.7117 16.6042 46.9239 16.5589 47.1473ZM17.4025 50.7772C17.1276 50.6689 16.9122 50.5085 16.7562 50.2959C16.6016 50.0839 16.5124 49.8373 16.4888 49.5563C16.4665 49.2757 16.5173 48.9782 16.6412 48.6636C16.7661 48.3465 16.9327 48.0922 17.1408 47.9009C17.3503 47.7102 17.5839 47.59 17.8416 47.5404C18.1007 47.4913 18.3676 47.5209 18.6425 47.6291C18.9174 47.7374 19.1322 47.8976 19.2868 48.1096C19.4428 48.3222 19.5317 48.5694 19.5535 48.8513C19.5766 49.1337 19.5257 49.4335 19.4007 49.7507C19.2768 50.0652 19.1104 50.3172 18.9014 50.5066C18.6938 50.6966 18.4604 50.8161 18.2014 50.8652C17.9437 50.9148 17.6774 50.8855 17.4025 50.7772ZM17.568 50.357C17.7768 50.4392 17.9697 50.4534 18.1467 50.3994C18.3237 50.3455 18.4789 50.244 18.6124 50.0951C18.7459 49.9461 18.8527 49.7699 18.9329 49.5664C19.013 49.3628 19.0554 49.1604 19.0598 48.9591C19.0643 48.7579 19.0205 48.5765 18.9284 48.415C18.8363 48.2535 18.6858 48.1317 18.477 48.0494C18.2682 47.9672 18.075 47.9537 17.8975 48.0089C17.72 48.0642 17.5643 48.167 17.4303 48.3172C17.2963 48.4675 17.1892 48.6444 17.109 48.8479C17.0289 49.0515 16.9868 49.2532 16.9828 49.4532C16.9789 49.6531 17.0232 49.8332 17.1158 49.9933C17.2085 50.1535 17.3592 50.2747 17.568 50.357ZM19.5214 51.5386L20.7209 48.4936L21.1728 48.6717L20.9854 49.1474L21.0251 49.1631C21.1526 49.0255 21.3047 48.9396 21.4815 48.9055C21.6588 48.87 21.8466 48.8913 22.0449 48.9694C22.2458 49.0485 22.395 49.1599 22.4925 49.3037C22.5919 49.4467 22.6473 49.6143 22.6586 49.8065L22.6903 49.819C22.8302 49.6925 22.9964 49.6136 23.1888 49.5826C23.3817 49.5501 23.5872 49.5769 23.8053 49.6628C24.0775 49.77 24.2666 49.943 24.3726 50.1817C24.4791 50.4191 24.4618 50.7168 24.3207 51.075L23.518 53.1129L23.0501 52.9286L23.8529 50.8907C23.9414 50.666 23.9432 50.4812 23.8583 50.3363C23.7734 50.1914 23.6476 50.0862 23.4811 50.0206C23.267 49.9363 23.0756 49.9357 22.907 50.0189C22.7389 50.1007 22.616 50.2401 22.5385 50.437L21.7576 52.4195L21.2818 52.2321L22.1033 50.1465C22.1715 49.9734 22.1702 49.8119 22.0996 49.6619C22.0294 49.5106 21.9058 49.4 21.7287 49.3303C21.6071 49.2824 21.4807 49.27 21.3494 49.2931C21.2195 49.3167 21.0995 49.3733 20.9895 49.4628C20.8813 49.5514 20.7977 49.6704 20.7389 49.8198L19.9893 51.7229L19.5214 51.5386ZM24.3734 53.4499L25.5728 50.4049L26.0407 50.5892L24.8412 53.6342L24.3734 53.4499ZM26.0106 49.9911C25.9194 49.9551 25.853 49.8931 25.8114 49.805C25.7711 49.7173 25.7682 49.6299 25.8025 49.5427C25.8369 49.4555 25.8987 49.3935 25.9879 49.3569C26.0785 49.3209 26.1693 49.3208 26.2605 49.3567C26.3517 49.3926 26.4175 49.4544 26.4577 49.542C26.4994 49.6302 26.503 49.7178 26.4686 49.8051C26.4343 49.8923 26.3718 49.954 26.2813 49.99C26.192 50.0266 26.1018 50.027 26.0106 49.9911ZM26.8875 52.3242L26.166 54.156L25.6981 53.9717L26.8976 50.9267L27.3496 51.1047L27.1622 51.5805L27.2018 51.5961C27.3341 51.4696 27.4914 51.3881 27.6737 51.3515C27.8566 51.3136 28.063 51.34 28.293 51.4305C28.4991 51.5118 28.6629 51.6251 28.7842 51.7706C28.906 51.9148 28.9763 52.089 28.9951 52.2934C29.0143 52.4964 28.973 52.7274 28.8709 52.9864L28.1088 54.9213L27.6409 54.737L28.3906 52.8338C28.4848 52.5946 28.4961 52.3838 28.4244 52.2014C28.3533 52.0177 28.2094 51.8831 27.9926 51.7977C27.8433 51.7389 27.697 51.7187 27.5539 51.7371C27.4121 51.7561 27.283 51.8144 27.1667 51.9121C27.0503 52.0097 26.9573 52.1471 26.8875 52.3242ZM29.718 56.9475C29.492 56.8585 29.3092 56.7529 29.1695 56.6307C29.0294 56.5098 28.9236 56.3811 28.8522 56.2446C28.7815 56.1099 28.7353 55.9772 28.7136 55.8465L29.1893 55.7316C29.2098 55.8038 29.2383 55.8883 29.2749 55.9852C29.3111 56.0834 29.3749 56.1811 29.4664 56.2782C29.5587 56.3771 29.6967 56.4628 29.8804 56.5352C30.1262 56.632 30.3525 56.6524 30.5593 56.5965C30.7661 56.5405 30.9194 56.3857 31.0194 56.1319L31.263 55.5134L31.2234 55.4978C31.1672 55.5398 31.0912 55.5892 30.9955 55.6462C30.9016 55.7023 30.7834 55.7389 30.6407 55.7561C30.5 55.7724 30.3305 55.7415 30.1322 55.6634C29.8864 55.5665 29.6886 55.4214 29.5388 55.2281C29.3904 55.0353 29.303 54.8055 29.2768 54.5386C29.2519 54.2724 29.302 53.9806 29.4269 53.6634C29.5498 53.3515 29.7116 53.1016 29.9124 52.9135C30.1137 52.7241 30.3372 52.6045 30.5828 52.5547C30.8289 52.5035 31.0801 52.5284 31.3365 52.6294C31.5347 52.7075 31.679 52.8025 31.7693 52.9144C31.8614 53.0255 31.9221 53.1349 31.9514 53.2426C31.9826 53.3496 32.0049 53.4362 32.0185 53.5026L32.066 53.5214L32.2566 53.0377L32.7086 53.2157L31.4748 56.3479C31.3717 56.6096 31.2284 56.799 31.0449 56.916C30.8622 57.0349 30.656 57.0933 30.4262 57.0914C30.1972 57.0912 29.9612 57.0433 29.718 56.9475ZM30.3612 55.2681C30.5489 55.342 30.7244 55.3615 30.8878 55.3266C31.0511 55.2918 31.1983 55.207 31.3292 55.0723C31.4601 54.9376 31.5698 54.7579 31.6583 54.5332C31.7447 54.3139 31.7879 54.1072 31.788 53.9133C31.788 53.7195 31.742 53.5494 31.65 53.4033C31.5579 53.2571 31.4168 53.1465 31.2265 53.0716C31.0282 52.9935 30.8432 52.9786 30.6715 53.027C30.5011 53.0759 30.3495 53.1719 30.2168 53.3151C30.0854 53.4587 29.9791 53.6336 29.8979 53.8398C29.8146 54.0513 29.774 54.2513 29.776 54.4399C29.7799 54.6277 29.8291 54.7936 29.9235 54.9376C30.0197 55.0809 30.1656 55.191 30.3612 55.2681ZM37.4188 55.0711C37.4742 54.8609 37.4391 54.6669 37.3137 54.4892C37.1882 54.3116 37.0026 54.1744 36.7568 54.0775C36.577 54.0067 36.4083 53.9738 36.2506 53.9789C36.0942 53.9845 35.9583 54.0233 35.8429 54.0954C35.7288 54.168 35.6462 54.2691 35.5952 54.3986C35.5525 54.507 35.5416 54.6103 35.5624 54.7086C35.5851 54.806 35.6273 54.8967 35.6889 54.9805C35.751 55.063 35.8206 55.1385 35.8974 55.2069C35.9748 55.274 36.0472 55.3323 36.1148 55.3818L36.4834 55.6553C36.5782 55.7247 36.6807 55.8093 36.791 55.9093C36.9025 56.0097 37.0011 56.1256 37.0868 56.2571C37.1742 56.3877 37.2312 56.5338 37.2576 56.6954C37.2841 56.8569 37.2598 57.0329 37.1848 57.2232C37.0984 57.4426 36.9628 57.6182 36.7781 57.75C36.5947 57.8823 36.3727 57.9574 36.1122 57.9754C35.853 57.9939 35.5674 57.9418 35.2555 57.8189C34.9648 57.7044 34.7315 57.5583 34.5557 57.3806C34.3812 57.2035 34.2662 57.0071 34.2107 56.7913C34.1566 56.5761 34.1653 56.3543 34.2369 56.1261L34.7444 56.326C34.6972 56.4845 34.6988 56.6317 34.7491 56.7675C34.8012 56.9026 34.8871 57.0219 35.0066 57.1254C35.1279 57.2282 35.2692 57.3113 35.4305 57.3748C35.6181 57.4488 35.7986 57.4847 35.9719 57.4828C36.1457 57.4795 36.2978 57.4402 36.4283 57.3648C36.5592 57.2882 36.6539 57.1758 36.7122 57.0278C36.7653 56.893 36.7708 56.7685 36.7288 56.6542C36.6868 56.54 36.6147 56.4322 36.5126 56.3309C36.4106 56.2296 36.296 56.1311 36.1688 56.0352L35.7255 55.6957C35.4442 55.4795 35.2444 55.2504 35.126 55.0084C35.0076 54.7663 35.0023 54.5085 35.1101 54.235C35.1996 54.0076 35.3392 53.8336 35.5287 53.7129C35.7201 53.5913 35.9387 53.5247 36.1845 53.5132C36.4321 53.5008 36.6854 53.5456 36.9444 53.6476C37.2061 53.7507 37.4202 53.8893 37.5868 54.0633C37.7539 54.2359 37.8652 54.4263 37.9206 54.6344C37.9773 54.843 37.9687 55.0511 37.8946 55.2585L37.4188 55.0711ZM38.7076 59.1695C38.4327 59.0612 38.2173 58.9008 38.0613 58.6882C37.9067 58.4762 37.8175 58.2296 37.7939 57.9486C37.7716 57.668 37.8224 57.3705 37.9463 57.0559C38.0712 56.7388 38.2378 56.4845 38.446 56.2933C38.6554 56.1025 38.889 55.9823 39.1468 55.9327C39.4058 55.8836 39.6728 55.9132 39.9476 56.0214C40.2225 56.1297 40.4373 56.2899 40.5919 56.502C40.7479 56.7145 40.8368 56.9617 40.8586 57.2436C40.8817 57.526 40.8308 57.8258 40.7058 58.143C40.5819 58.4575 40.4155 58.7095 40.2065 58.8989C39.9989 59.0889 39.7655 59.2084 39.5065 59.2575C39.2488 59.3071 38.9825 59.2778 38.7076 59.1695ZM38.8731 58.7493C39.0819 58.8315 39.2748 58.8457 39.4518 58.7917C39.6288 58.7378 39.784 58.6363 39.9175 58.4874C40.051 58.3384 40.1578 58.1622 40.238 57.9587C40.3181 57.7551 40.3605 57.5527 40.3649 57.3514C40.3694 57.1502 40.3256 56.9688 40.2335 56.8073C40.1414 56.6458 39.9909 56.524 39.7821 56.4417C39.5733 56.3595 39.3801 56.346 39.2026 56.4012C39.0251 56.4565 38.8694 56.5593 38.7354 56.7095C38.6014 56.8598 38.4943 57.0367 38.4141 57.2402C38.334 57.4438 38.2919 57.6455 38.2879 57.8455C38.284 58.0454 38.3283 58.2255 38.421 58.3857C38.5136 58.5458 38.6643 58.667 38.8731 58.7493ZM42.0385 60.4816C41.7637 60.3734 41.5482 60.2129 41.3923 60.0003C41.2376 59.7883 41.1485 59.5417 41.1249 59.2607C41.1026 58.9801 41.1533 58.6826 41.2773 58.3681C41.4022 58.0509 41.5688 57.7966 41.7769 57.6054C41.9864 57.4146 42.22 57.2944 42.4777 57.2448C42.7368 57.1957 43.0037 57.2253 43.2786 57.3335C43.5535 57.4418 43.7683 57.602 43.9229 57.8141C44.0789 58.0266 44.1677 58.2738 44.1895 58.5557C44.2126 58.8381 44.1617 59.1379 44.0368 59.4551C43.9129 59.7696 43.7464 60.0216 43.5375 60.211C43.3298 60.401 43.0965 60.5205 42.8375 60.5696C42.5797 60.6192 42.3134 60.5899 42.0385 60.4816ZM42.2041 60.0614C42.4129 60.1436 42.6058 60.1578 42.7828 60.1038C42.9598 60.0499 43.115 59.9484 43.2485 59.7995C43.3819 59.6505 43.4888 59.4743 43.5689 59.2708C43.6491 59.0672 43.6914 58.8648 43.6959 58.6635C43.7004 58.4623 43.6566 58.2809 43.5645 58.1194C43.4723 57.9579 43.3219 57.8361 43.1131 57.7538C42.9042 57.6716 42.7111 57.6581 42.5336 57.7133C42.3561 57.7686 42.2004 57.8714 42.0664 58.0217C41.9324 58.1719 41.8253 58.3488 41.7451 58.5523C41.6649 58.7559 41.6229 58.9576 41.6189 59.1576C41.6149 59.3575 41.6593 59.5376 41.7519 59.6978C41.8446 59.8579 41.9953 59.9791 42.2041 60.0614ZM45.3469 59.5956L44.6253 61.4273L44.1575 61.243L45.3569 58.198L45.8089 58.3761L45.6215 58.8518L45.6612 58.8675C45.7934 58.7409 45.9507 58.6594 46.1331 58.6228C46.3159 58.5849 46.5224 58.6113 46.7523 58.7019C46.9585 58.7831 47.1222 58.8964 47.2435 59.0419C47.3654 59.1861 47.4357 59.3604 47.4544 59.5647C47.4737 59.7677 47.4323 59.9987 47.3303 60.2577L46.5681 62.1926L46.1002 62.0083L46.8499 60.1052C46.9441 59.866 46.9554 59.6551 46.8838 59.4727C46.8126 59.289 46.6687 59.1544 46.452 59.069C46.3026 59.0102 46.1564 58.99 46.0132 59.0084C45.8714 59.0274 45.7424 59.0857 45.626 59.1834C45.5097 59.2811 45.4166 59.4185 45.3469 59.5956Z" fill="white"/>
</svg>
